<svg stroke="currentColor" stroke-width="0.5" fill="none" viewBox="0 0 176.74872 61.816326" xmlns="http://www.w3.org/2000/svg">
    <path pathLength="0.99" d="M 2.51657,29.1555 0.399906,37.8868 C 9.76417,17.7289 6.45758,35.2009 9.34094,36.1122 c 2.76536,0.874 7.41396,-7.1101 12.74956,-9.1041 -14.27838,9.5376 -2.7107,15.1866 -1.7788,-0.6736 2.4224,6.3791 5.9843,15.2829 -0.9086,28.1275 -2.3963,4.4655 -10.72337,6.5903 -8.4559,-2.0552 1.5536,-5.9236 13.1785,-16.097 20.7137,-23.0188 -4.2256,6.1199 0.068,11.8954 4.6996,0.6 -2.3634,5.8154 6.5246,6.4735 9.4542,-1.7131 -2.4384,6.9802 3.5315,11.0967 7.4391,-0.5519 15.23,53.5328 -53.552091,34.2888 12.2336,4.0453 3.417,-1.5709 -1.2148,-5.5903 -2.8773,1.3891 -1.0973,4.6061 6.5488,1.1818 10.0598,-3.8582 l -2.0392,8.5663 c 10.629,-20.9101 9.1543,-6.3425 8.8352,-0.9074" />
    <path pathLength="0.99" d="M 79.4659,36.9581 C 78.8468,47.5024 102.766,36.527 110.278,25.8009 130.771,-3.45857 103.345,-4.33538 103.205,7.61892 103.097,-4.47891 75.5073,-2.53803 96.5864,26.1105 112.502,47.7417 151.619,33.6722 127.318,21.2737" />
    <path pathLength="0.99" d="m 127.318,21.2737 c 3.146,1.9095 19.741,-2.1345 24.059,-1.6083 -4.937,-0.7224 -13.964,1.2217 -11.541,-4.3005 -24.65,57.222 16.834,7.0087 20.245,-8.37613 3.599,-16.22715 -15.636,14.52853 -14.836,32.24733 10.077,-19.9874 6.6,-4.3228 10.501,-4.0458 1.862,0.1323 5.307,-3.2703 7.226,-5.4957 -4.522,8.3549 1.336,10.0066 4.848,0.4838 -1.906,5.2681 3.725,6.0413 8.529,1.2" />

	<style>
		path {
			stroke-dasharray: 1;
			stroke-dashoffset: 1;
			animation-duration: 10s;
			animation-timing-function: linear;
			animation-iteration-count: infinite;
		}

		path:nth-child(1) {
			animation-name: path1;
		}

		@keyframes path1 {
			0% {
				stroke-dashoffset: 1;
			}
			25% {
				stroke-dashoffset: 0;
			}
			35% {
				stroke-dashoffset: 0;
			}
			60% {
				stroke-dashoffset: -1;
			}
			100% {
				stroke-dashoffset: -1;
			}
		}

		path:nth-child(2) {
			animation-name: path2;
		}

		@keyframes path2 {
			25% {
				stroke-dashoffset: 1;
			}
			35% {
				stroke-dashoffset: 0;
			}
			60% {
				stroke-dashoffset: 0;
			}
			70% {
				stroke-dashoffset: -1;
			}
			100% {
				stroke-dashoffset: -1;
			}
		}

		path:nth-child(3) {
			animation-name: path3;
		}

		@keyframes path3 {
			35% {
				stroke-dashoffset: 1;
			}
			60% {
				stroke-dashoffset: 0;
			}
			70% {
				stroke-dashoffset: 0;
			}
			85% {
				stroke-dashoffset: -1;
			}
			100% {
				stroke-dashoffset: -1;
			}
		}
	</style>

</svg>
